
<svg xmlns="http://www.w3.org/2000/svg" xmlns:xlink="http://www.w3.org/1999/xlink" fill="none" preserveAspectRatio="xMidYMid meet" style="fill: none;" version="1.0" viewBox="77.9 32.8 356.0 446.4" zoomAndPan="magnify" original_string_length="38496"><g id="__id10_s1kav3sw1c"><path d="M417.36 285.97C389.52 283.27 319.17 306.46 295.66 335.34H261.83C287.33 251.29 371.98 200.72 400.48 209.28C398.8 217.44 396.85 232.22 400.86 249.95C404.74 267.12 412.45 279.33 417.36 285.97Z" style="fill: rgb(255, 255, 255);"/></g><g id="__id11_s1kav3sw1c"><path d="M197.33 293.03C180.39 252.42 157.37 214.44 127.56 182.07C121.88 175.91 118.44 174.34 121.71 169.72C124.98 165.1 177.87 122.88 183.29 121.97C188.71 121.06 189.82 124.1 191.39 126.06C200.14 136.96 206.3 149.92 210.36 163.29C215.36 179.77 227.9 309.62 204.8 350.11C204.8 350.11 206.16 314.21 197.33 293.03Z" style="fill: rgb(255, 255, 255);"/></g><g id="__id12_s1kav3sw1c"><path d="M90.9805 294.09C101.85 295.86 132.35 301.61 144.24 305.1C159.44 309.56 173.9 314.59 185.64 325.23C190.19 329.35 194.68 340.9 194.68 340.9C194.68 340.9 196.26 326.36 192.74 315.01C186.49 294.82 174.03 251.69 119.39 223.55L90.9805 294.09Z" style="fill: rgb(255, 255, 255);"/></g><g id="__id13_s1kav3sw1c"><path d="M206.31 62.0504C200.14 65.9404 217.12 82.7104 225.15 129.56C242.75 232.24 221.61 333.82 210.36 355.27C210.36 355.27 263.38 269.96 268.91 216.67C275.05 157.38 276.89 89.4104 266.49 56.6804C264.79 51.3404 263.03 49.1804 258.92 50.3604C254.79 51.5304 206.31 62.0504 206.31 62.0504Z" style="fill: rgb(255, 255, 255);"/></g><g id="__id14_s1kav3sw1c"><path d="M312.81 102.15C268.9 135.02 218.09 246.58 246.66 343.88C246.66 343.88 253.68 271.63 326.15 182.46C352.48 150.06 369.62 148.09 369.64 138.3L312.81 102.15Z" style="fill: rgb(255, 255, 255);"/></g><g id="__id15_s1kav3sw1c"><path d="M334.69 401.93C336.41 423.74 338.13 445.55 339.85 467.36C282.44 463.4 224.54 466.59 167.92 476.84C164.42 453.97 162.95 430.8 163.51 407.68L164.94 391.85L330.44 379.68L334.69 401.93Z" style="fill: rgb(255, 255, 255);"/></g><g id="__id16_s1kav3sw1c"><path d="M396.98 401.63C307.66 397.16 207.7 398.7 119.39 409.47C135.7 382.52 152.02 355.57 168.32 328.61C209.73 327.16 260.73 325.19 301.6 323.77C309.04 323.51 316.8 323.31 323.54 326.46C328.97 329 333.2 333.47 337.3 337.84C352.94 354.52 379.71 383.19 396.98 401.63Z" style="fill: rgb(255, 255, 255);"/></g><g id="__id17_s1kav3sw1c"><path d="M199.53 162.26C198.83 163.85 196.89 164.41 195.19 164.78C190.48 165.81 181.88 167.54 175.91 168.8C175.19 177.42 173.38 185.93 170.55 194.09C169.67 196.63 166.3 197.1 164.8 194.87L149.82 172.59L123.47 173.57C121.43 173.65 120.32 171.22 121.71 169.73L139.74 150.29C138.05 142.74 136.68 132.98 135.84 125.64C135.69 124.35 135.6 122.91 136.42 121.91C137.71 120.31 140.25 120.88 142.13 121.72C147.7 124.2 152.76 127.8 156.96 132.22C163.65 129.51 173.68 125.4 179.54 123.04C180.75 122.55 181.99 122.06 183.29 121.98C184.59 121.89 185.99 122.28 186.81 123.3C188.06 124.83 187.57 127.07 187.03 128.97C185.47 134.36 184.29 140.68 182.73 146.08C187.25 149.44 191.77 152.81 196.29 156.18C197.29 156.92 198.31 157.69 199.01 158.72C199.7 159.75 200.03 161.12 199.53 162.26Z" style="fill: rgb(255, 255, 255);"/></g><g id="__id18_s1kav3sw1c"><path d="M261.55 55.5696C258.87 58.6196 256.15 62.3796 253.47 65.4196C255.38 69.0196 257.3 72.6096 259.21 76.2096C259.63 76.9996 260.06 77.8096 260.2 78.6996C260.34 79.5896 260.13 80.5896 259.45 81.1696C258.5 81.9996 257.06 81.7696 255.83 81.4796C252.58 80.7296 246.59 78.8896 242.26 77.6996C239.1 83.2796 235.19 88.4396 230.7 93.0296C229.34 94.4196 226.99 93.6796 226.7 91.7596L223.8 72.5896L206.28 65.0996C204.92 64.5196 204.94 62.5996 206.31 62.0496L224.47 54.7596C225.67 49.3396 227.49 42.4596 229.14 37.6096C229.45 36.7196 229.83 35.7596 230.67 35.3496C232.01 34.6996 233.49 35.8596 234.46 36.9896C237.37 40.3696 239.59 44.3396 240.96 48.5896C246.14 48.8596 253.9 49.1296 258.49 49.3896C259.43 49.4496 260.39 49.5096 261.27 49.8496C262.14 50.1996 262.94 50.8896 263.16 51.7996C263.5 53.1896 262.49 54.5096 261.55 55.5696Z" style="fill: rgb(255, 255, 255);"/></g><g id="__id19_s1kav3sw1c"><path d="M159.86 257.64L138.07 274.21C138.5 281.86 138.78 291.53 138.35 298.65C138.28 299.94 138.12 301.37 137.14 302.22C135.59 303.58 133.19 302.58 131.48 301.43C126.32 297.95 121.86 293.41 118.46 288.19C111.22 289.84 100.69 292.44 94.86 293.68C93.58 293.96 92.28 294.23 90.98 294.09C89.69 293.95 88.37 293.32 87.74 292.18C86.78 290.46 87.64 288.33 88.5 286.56C90.96 281.51 93.22 275.49 95.68 270.44C91.8 266.35 87.93 262.25 84.05 258.16C83.2 257.26 82.33 256.33 81.82 255.19C81.31 254.06 81.22 252.65 81.91 251.62C82.88 250.17 84.88 249.95 86.63 249.88C91.55 249.67 100.28 249.47 106.3 249.26C108.49 240.89 111.74 232.81 115.93 225.24C117.23 222.89 120.64 223.01 121.74 225.46L132.65 249.99L158.78 253.55C160.8 253.83 161.48 256.41 159.86 257.64Z" style="fill: rgb(255, 255, 255);"/></g><g id="__id20_s1kav3sw1c"><path d="M384.38 98.4905L366.53 116.09C367.8 123.07 369.22 132.12 369.64 138.29C369.72 139.47 369.74 140.79 368.96 141.68C367.71 143.09 365.4 142.47 363.71 141.62C358.68 139.1 354.16 135.57 350.49 131.31C344.13 133.58 334.76 137.03 329.51 138.88C328.38 139.27 327.23 139.67 326.04 139.7C324.84 139.72 323.57 139.31 322.86 138.34C321.79 136.89 322.32 134.85 322.9 133.14C324.54 128.27 325.89 122.53 327.53 117.65C323.53 114.38 319.53 111.11 315.53 107.85C314.64 107.12 313.74 106.38 313.15 105.41C312.55 104.44 312.3 103.17 312.81 102.15C313.52 100.72 315.32 100.29 316.89 100.01C321.28 99.2605 329.23 97.9005 334.72 96.9605C335.75 89.1605 337.74 81.4905 340.65 74.1805C341.56 71.8905 344.67 71.6005 345.95 73.7105L358.75 94.7305L382.93 94.9005C384.8 94.9105 385.72 97.1805 384.38 98.4905Z" style="fill: rgb(255, 255, 255);"/></g><g id="__id21_s1kav3sw1c"><path d="M430.58 239.76C430.67 241.58 429.12 243 427.7 244.15C423.68 247.4 416.41 252.86 411.48 256.73C414.88 265.17 417.2 274.05 418.38 283.07C418.74 285.85 415.8 287.87 413.36 286.48L388.95 272.66L364.77 285.9C362.9 286.92 360.73 285.17 361.33 283.13L369.21 256.14C364.12 249.88 357.93 241.47 353.92 235.3C353.18 234.17 352.43 232.87 352.72 231.55C353.18 229.45 355.82 228.79 357.97 228.7C364.37 228.41 370.82 229.42 376.84 231.63C381.84 225.93 389.24 217.33 393.56 212.45C394.46 211.43 395.39 210.39 396.56 209.7C397.74 209.01 399.24 208.72 400.48 209.28C402.36 210.14 402.95 212.46 403.33 214.49C404.4 220.26 406.25 226.72 407.31 232.49C413.11 233.52 418.91 234.56 424.71 235.59C426 235.82 427.3 236.06 428.44 236.69C429.57 237.33 430.52 238.46 430.58 239.76Z" style="fill: rgb(255, 255, 255);"/></g><g id="__id22_s1kav3sw1c"><path d="M272.35 235.17C261.78 246.5 247.76 259.01 237.19 270.35C236.18 271.43 235.06 272.57 233.68 272.95C233.44 273 233.2 273.04 232.98 273.08C230.98 273.25 229.28 271.74 227.84 270.34C218.59 261.28 205.6 248.11 195.83 238.46C206.06 226.63 223.14 207.75 234.99 194.04C247.5 207.98 261.57 223.12 272.35 235.17Z" style="fill: rgb(255, 255, 255);"/></g><g id="__id23_s1kav3sw1c"><path d="M310.1 219.34C298.73 224.13 282.88 230.72 272.35 235.17C261.57 223.12 247.5 207.98 234.99 194.04C235.03 193.99 235.07 193.95 235.1 193.91C243.01 190.87 255.33 186.82 263.18 183.78C266.33 182.57 269.69 181.33 272.99 182.02C276.44 182.75 279.09 185.42 281.52 187.97C289.85 196.7 301.44 210.12 310.1 219.34Z" style="fill: rgb(255, 255, 255);"/></g><g id="__id24_s1kav3sw1c"><path d="M310.1 219.34C303.98 227.54 293.46 243.09 287.33 251.29C285.06 254.33 282.73 257.42 279.58 259.54C276.69 261.48 273.29 262.47 269.94 263.44C260.77 266.09 242.21 271.32 233.68 272.95C235.06 272.57 236.18 271.43 237.19 270.35C247.76 259.01 261.78 246.5 272.35 235.17C282.88 230.72 298.73 224.13 310.1 219.34Z" style="fill: rgb(255, 255, 255);"/></g><g id="__id25_s1kav3sw1c"><path d="M167.71 325.29C154.65 346.87 141.6 368.44 128.54 390.02C124.84 396.13 121.15 402.24 117.45 408.35C116.64 409.68 117.66 411.95 119.39 411.74C154.63 407.45 190.02 404.35 225.48 402.46C260.93 400.57 296.45 399.89 331.95 400.42C351.85 400.72 371.75 401.4 391.62 402.45C394.51 402.6 394.51 398.1 391.62 397.95C356.17 396.07 320.65 395.39 285.15 395.92C249.65 396.45 214.17 398.2 178.79 401.14C158.95 402.79 139.15 404.83 119.39 407.23C120.04 408.36 120.69 409.49 121.33 410.62C134.39 389.04 147.44 367.47 160.5 345.89C164.2 339.78 167.89 333.67 171.59 327.56C173.1 325.07 169.21 322.81 167.71 325.29Z" style="fill: rgb(67, 71, 74);"/></g><g id="__id26_s1kav3sw1c"><path d="M175.63 330.41C207.66 329.29 239.7 328.17 271.73 327.06C279.7 326.78 287.66 326.5 295.63 326.23C302.74 325.98 310.18 325.21 317.19 326.73C323.98 328.2 328.99 332.41 333.69 337.3C339.07 342.9 344.33 348.63 349.64 354.29C361.87 367.34 374.11 380.38 386.34 393.43C388.33 395.55 391.5 392.36 389.52 390.25C378.42 378.41 367.32 366.57 356.22 354.73C350.78 348.93 345.35 343.13 339.91 337.33C335.19 332.29 330.35 326.95 323.88 324.16C317.13 321.25 309.7 321.24 302.48 321.48C294.55 321.74 286.63 322.03 278.7 322.31C262.43 322.88 246.17 323.45 229.9 324.01C211.81 324.64 193.72 325.27 175.63 325.9C172.74 326.01 172.73 330.51 175.63 330.41Z" style="fill: rgb(67, 71, 74);"/></g><g id="__id27_s1kav3sw1c"><path d="M161.26 407.67C160.83 425.79 161.63 443.94 163.68 461.96C164.27 467.13 164.96 472.29 165.75 477.44C165.94 478.71 167.44 479.21 168.52 479.01C190.54 475.03 212.75 472.12 235.05 470.29C257.31 468.47 279.65 467.71 301.99 468.03C314.62 468.21 327.25 468.74 339.85 469.61C341 469.69 342.19 468.51 342.1 467.36C340.77 450.42 339.43 433.49 338.1 416.55C337.72 411.68 337.33 406.8 336.95 401.93C336.85 400.72 335.98 399.68 334.7 399.68C333.56 399.68 332.35 400.71 332.45 401.93C333.78 418.87 335.12 435.8 336.45 452.74C336.83 457.61 337.22 462.49 337.6 467.36C338.35 466.61 339.1 465.86 339.85 465.11C317.41 463.57 294.89 463.1 272.4 463.74C249.91 464.37 227.46 466.09 205.14 468.89C192.49 470.48 179.87 472.4 167.32 474.67C168.24 475.19 169.17 475.72 170.09 476.24C167.4 458.6 165.94 440.77 165.69 422.93C165.62 417.84 165.65 412.76 165.77 407.67C165.83 404.78 161.33 404.78 161.26 407.67Z" style="fill: rgb(67, 71, 74);"/></g><g id="__id28_s1kav3sw1c"><path d="M139.23 147.54C133.37 153.85 127.52 160.16 121.66 166.47C120.73 167.48 119.52 168.52 119.08 169.85C118 173.07 120.68 175.88 123.83 175.81C128.19 175.7 132.54 175.49 136.9 175.32C141.21 175.16 145.52 175 149.83 174.84C152.72 174.73 152.73 170.23 149.83 170.34C141.72 170.64 133.6 170.95 125.49 171.25C124.92 171.27 124.34 171.32 123.77 171.31C123.68 171.31 123.57 171.31 123.48 171.32C123.15 171.37 123.34 171.29 123.34 171.27C123.35 170.95 123.26 171.38 123.31 171.29C123.37 171.19 123.49 171.1 123.57 171.01C123.96 170.59 124.35 170.17 124.74 169.75C128.01 166.23 131.27 162.71 134.54 159.19C137.16 156.36 139.78 153.54 142.41 150.71C144.38 148.6 141.2 145.41 139.23 147.54Z" style="fill: rgb(67, 71, 74);"/></g><g id="__id29_s1kav3sw1c"><path d="M149.24 175.74C152.52 180.62 155.8 185.5 159.08 190.38C160.33 192.24 161.55 194.14 162.84 195.98C164.29 198.05 166.81 199.12 169.28 198.24C172.64 197.03 173.27 193.25 174.17 190.22C176.59 182.06 177.99 173.6 178.41 165.1C178.55 162.21 174.05 162.21 173.91 165.1C173.57 171.96 172.55 178.75 170.84 185.4C170.41 187.07 169.94 188.73 169.43 190.38C169.11 191.39 168.87 193.33 168.03 193.93C167.63 194.21 167.1 194.15 166.62 193.53C165.21 191.7 164.02 189.66 162.73 187.75C160.75 184.81 158.78 181.87 156.8 178.93C155.58 177.12 154.36 175.31 153.15 173.49C151.52 171.08 147.62 173.33 149.24 175.74Z" style="fill: rgb(67, 71, 74);"/></g><g id="__id30_s1kav3sw1c"><path d="M178.91 170.63C183.41 169.65 187.91 168.67 192.41 167.69C195.86 166.94 200.84 166.47 201.87 162.33C203.01 157.72 198.34 154.91 195.24 152.6C191.45 149.78 187.66 146.95 183.87 144.13C184.21 144.98 184.56 145.82 184.9 146.67C186.2 142.12 187.14 137.48 188.3 132.89C189.29 128.99 191.56 123.58 187.3 120.75C185.44 119.51 183.07 119.52 180.98 120.11C178.58 120.8 176.25 121.94 173.94 122.87C169.1 124.82 164.25 126.77 159.41 128.73C158.28 129.18 157.49 130.23 157.84 131.5C158.13 132.57 159.47 133.53 160.61 133.07C164.85 131.36 169.08 129.65 173.32 127.95C175.44 127.1 177.56 126.24 179.68 125.39C181.03 124.85 183.02 123.75 184.52 124.35C185.81 124.87 185.31 126.6 185.05 127.64C184.56 129.57 184 131.48 183.53 133.42C182.56 137.44 181.69 141.49 180.55 145.47C180.25 146.52 180.78 147.41 181.58 148.01C184.77 150.39 187.96 152.76 191.15 155.14C192.62 156.24 194.13 157.3 195.57 158.44C196.28 159 197.91 160.23 197.44 161.35C197.11 162.14 195.59 162.37 194.88 162.53C193.01 162.97 191.13 163.35 189.25 163.76C185.39 164.6 181.54 165.44 177.68 166.28C174.88 166.91 176.08 171.25 178.91 170.63Z" style="fill: rgb(67, 71, 74);"/></g><g id="__id31_s1kav3sw1c"><path d="M160.52 132.84C155.7 127.11 149.41 122.22 142.43 119.41C139.21 118.11 134.86 118.37 133.74 122.31C133.19 124.23 133.67 126.36 133.91 128.29C134.19 130.5 134.5 132.72 134.86 134.92C135.65 139.9 136.65 144.84 137.82 149.74C138.49 152.56 142.83 151.36 142.16 148.54C141.02 143.8 140.06 139.02 139.28 134.2C138.9 131.83 138.56 129.46 138.27 127.08C138.16 126.15 137.39 123.51 138.57 123.14C139.83 122.75 141.82 124.01 142.89 124.54C144.75 125.47 146.55 126.54 148.27 127.71C151.67 130.03 154.7 132.86 157.35 136.01C158.13 136.94 159.72 136.82 160.53 136.01C161.44 135.1 161.3 133.78 160.52 132.84Z" style="fill: rgb(67, 71, 74);"/></g><g id="__id32_s1kav3sw1c"><path d="M224.55 52.3203C218.79 54.6303 213.02 56.9503 207.26 59.2603C206.23 59.6803 204.99 60.0303 204.18 60.8103C202.21 62.7003 202.94 66.0603 205.37 67.1403C208.26 68.4203 211.18 69.6203 214.09 70.8703C216.95 72.0903 219.82 73.3203 222.68 74.5403C223.8 75.0203 225.09 74.8703 225.76 73.7303C226.31 72.7803 226.08 71.1303 224.95 70.6503C219.55 68.3403 214.15 66.0303 208.74 63.7203C208.37 63.5603 208.01 63.4103 207.64 63.2503C207.57 63.2203 207.5 63.1903 207.43 63.1603C207.26 63.1003 207.29 63.0303 207.28 63.1003C207.28 63.1103 207.45 63.3203 207.48 63.3603C207.59 63.5403 207.49 63.7903 207.54 63.4603C207.47 63.9503 207.29 64.0203 206.95 64.2003C207.03 64.1603 207.13 64.1303 207.22 64.0903C207.6 63.9403 207.99 63.7803 208.37 63.6303C211.61 62.3303 214.84 61.0303 218.08 59.7303C220.64 58.7003 223.2 57.6703 225.76 56.6503C226.89 56.2003 227.68 55.1503 227.33 53.8803C227.02 52.8203 225.68 51.8603 224.55 52.3203Z" style="fill: rgb(67, 71, 74);"/></g><g id="__id33_s1kav3sw1c"><path d="M221.89 74.9297C222.54 79.2097 223.19 83.4797 223.84 87.7597C224.07 89.2897 224.24 90.8497 224.54 92.3597C224.98 94.5697 227.11 96.1597 229.34 95.9797C231.91 95.7697 233.61 93.2997 235.18 91.5097C239.07 87.0597 242.46 82.1697 245.25 76.9597C246.61 74.4097 242.73 72.1297 241.36 74.6897C239.16 78.8097 236.59 82.7597 233.64 86.3797C232.89 87.2997 232.11 88.2097 231.32 89.0897C230.94 89.5097 230.56 89.9297 230.17 90.3397C229.98 90.5497 229.78 90.7497 229.58 90.9597C229.62 90.9197 228.89 91.6797 229.2 91.3997C228.88 91.6897 229.34 91.4497 228.94 91.5297C229.4 91.4497 228.95 91.5497 228.91 91.5097C228.97 91.5197 229.03 91.5297 229.09 91.5397C228.84 91.4597 228.82 91.4697 229.04 91.5497C228.9 91.1497 228.86 91.7297 228.91 91.4697C228.89 91.4397 228.86 91.4197 228.84 91.3897C228.92 91.4497 228.97 91.5297 228.98 91.6397C229.07 92.1897 228.75 90.6197 228.87 91.1797C228.86 91.1497 228.86 91.1197 228.86 91.0897C228.09 86.9297 227.59 82.7097 226.95 78.5297C226.71 76.9397 226.47 75.3497 226.23 73.7497C226.05 72.5497 224.53 71.8797 223.46 72.1797C222.17 72.5097 221.7 73.7197 221.89 74.9297Z" style="fill: rgb(67, 71, 74);"/></g><g id="__id34_s1kav3sw1c"><path d="M243.08 80.8496C246.48 81.6296 249.89 82.4196 253.29 83.1996C256.12 83.8496 259.8 84.9296 261.72 81.9296C263.57 79.0396 261.62 75.9396 260.23 73.3396C258.62 70.3196 257.01 67.2996 255.41 64.2796C255.29 65.1896 255.18 66.0996 255.06 67.0096C257.42 64.3096 259.56 61.4296 261.85 58.6796C263.91 56.1996 266.99 53.1096 264.64 49.7396C262.55 46.7396 258.28 47.1296 255.06 46.9396C251.14 46.7096 247.23 46.4796 243.31 46.2596C240.42 46.0896 240.43 50.5896 243.31 50.7596C246.41 50.9396 249.51 51.1196 252.61 51.2996C254.16 51.3896 255.71 51.4796 257.26 51.5696C258.24 51.6296 259.93 51.4496 260.76 52.1196C261.02 52.3296 260.96 52.3096 260.94 52.4996C260.89 52.9296 260.47 53.3596 260.21 53.6896C259.33 54.7796 258.38 55.8196 257.5 56.9196C255.63 59.2396 253.83 61.5996 251.87 63.8396C251.18 64.6296 251.02 65.6396 251.52 66.5696C252.75 68.8696 253.97 71.1696 255.2 73.4696C255.81 74.6196 256.43 75.7696 257.04 76.9196C257.32 77.4496 258.33 78.8396 257.95 79.4996C257.99 79.4396 257.84 79.5096 257.56 79.4996C257.09 79.4696 256.65 79.3696 256.19 79.2696C254.89 78.9796 253.6 78.6696 252.3 78.3696C249.63 77.7496 246.95 77.1396 244.28 76.5196C241.45 75.8596 240.25 80.1996 243.08 80.8496Z" style="fill: rgb(67, 71, 74);"/></g><g id="__id35_s1kav3sw1c"><path d="M243.68 49.8797C242.27 44.5297 239.6 39.0897 235.75 35.0597C234.7 33.9697 233.31 33.0297 231.76 32.9297C230.13 32.8297 228.69 33.6997 227.83 35.0497C227.08 36.2297 226.72 37.7297 226.3 39.0497C225.84 40.4797 225.4 41.9097 224.99 43.3497C224.01 46.7497 223.16 50.1797 222.44 53.6397C222.19 54.8297 222.79 56.0697 224.01 56.4097C225.13 56.7197 226.53 56.0297 226.78 54.8397C227.47 51.5597 228.26 48.2897 229.18 45.0697C229.64 43.4597 230.13 41.8497 230.64 40.2497C230.89 39.4897 231.11 38.7097 231.4 37.9597C231.46 37.7997 231.64 37.6397 231.65 37.4297C231.66 37.2297 231.75 37.3997 231.54 37.4097C231.47 37.4097 231.47 37.3997 231.44 37.3797C231.64 37.5797 232.01 37.7197 232.24 37.9097C232.79 38.3897 233.25 38.9897 233.69 39.5597C234.56 40.6697 235.34 41.8497 236.04 43.0597C237.51 45.5797 238.6 48.2497 239.34 51.0697C240.08 53.8697 244.42 52.6897 243.68 49.8797Z" style="fill: rgb(67, 71, 74);"/></g><g id="__id36_s1kav3sw1c"><path d="M138.63 276.59C145.48 271.38 152.34 266.17 159.19 260.96C160.24 260.16 161.72 259.29 162.38 258.15C164.03 255.3 162.19 251.81 159.02 251.34C154.71 250.7 150.38 250.16 146.06 249.57C141.79 248.99 137.51 248.4 133.24 247.82C132.04 247.66 130.82 248.11 130.47 249.39C130.18 250.44 130.83 251.99 132.04 252.16C140.08 253.26 148.13 254.36 156.17 255.45C156.74 255.53 157.31 255.6 157.88 255.68C157.97 255.69 158.07 255.7 158.16 255.72C158.18 255.72 158.51 255.77 158.45 255.76C158.31 255.75 158.66 255.8 158.5 255.79C158.56 255.79 158.33 256.05 158.69 255.71C158.6 255.8 158.49 255.86 158.39 255.94C157.94 256.29 157.48 256.64 157.02 256.98C153.2 259.89 149.38 262.79 145.55 265.7C142.48 268.03 139.41 270.37 136.34 272.7C135.37 273.43 134.87 274.64 135.53 275.78C136.1 276.73 137.65 277.33 138.63 276.59Z" style="fill: rgb(67, 71, 74);"/></g><g id="__id37_s1kav3sw1c"><path d="M133.61 246.63C131.19 241.19 128.77 235.75 126.35 230.31C125.47 228.32 124.65 226.29 123.69 224.34C122.53 221.98 119.79 220.81 117.27 221.51C114.06 222.41 112.78 226.26 111.47 228.95C107.85 236.37 105.09 244.19 103.27 252.24C102.63 255.06 106.97 256.26 107.61 253.44C109.11 246.81 111.22 240.31 114.01 234.12C114.7 232.6 115.42 231.09 116.18 229.6C116.53 228.92 116.88 228.25 117.24 227.58C117.52 227.05 117.77 226.28 118.28 225.93C118.55 225.74 119.06 225.74 119.31 225.91C119.61 226.12 119.73 226.45 119.89 226.78C122.42 232.09 124.69 237.55 127.08 242.93C127.97 244.93 128.86 246.92 129.74 248.92C130.23 250.03 131.85 250.29 132.82 249.73C133.94 249.04 134.1 247.74 133.61 246.63Z" style="fill: rgb(67, 71, 74);"/></g><g id="__id38_s1kav3sw1c"><path d="M103.88 246.9C99.2796 247.09 94.6796 247.29 90.0696 247.48C86.4496 247.63 81.1596 247.19 79.5496 251.34C77.8596 255.68 81.8496 259.11 84.5096 261.92C87.6996 265.29 90.8896 268.66 94.0796 272.04C93.9596 271.13 93.8496 270.22 93.7296 269.31C91.6696 273.57 89.9396 277.98 88.0096 282.29C86.3496 286 83.0596 291.01 86.7996 294.59C88.5996 296.32 91.1696 296.55 93.5196 296.21C95.9396 295.86 98.3296 295.24 100.72 294.73C105.83 293.64 110.93 292.55 116.04 291.46C118.87 290.86 117.67 286.52 114.84 287.12C110.53 288.04 106.22 288.96 101.91 289.88C99.7596 290.34 97.5996 290.8 95.4496 291.26C93.9496 291.58 91.5096 292.49 90.0896 291.48C88.9896 290.7 89.8296 289 90.2696 288.05C91.1096 286.21 91.9796 284.39 92.7896 282.53C94.3796 278.87 95.8796 275.17 97.6196 271.58C98.0696 270.65 97.9996 269.62 97.2696 268.85C94.5896 266.02 91.9096 263.19 89.2396 260.36C87.9496 258.99 86.6396 257.64 85.3696 256.26C84.7296 255.57 83.0996 253.97 83.7696 252.87C84.2096 252.14 85.7396 252.17 86.4596 252.13C88.3296 252.03 90.1896 251.97 92.0596 251.89C95.9996 251.72 99.9496 251.56 103.89 251.39C106.77 251.28 106.78 246.78 103.88 246.9Z" style="fill: rgb(67, 71, 74);"/></g><g id="__id39_s1kav3sw1c"><path d="M115.18 287.14C118.92 293.58 124.12 299.26 130.35 303.37C133.29 305.31 137.88 306.23 139.79 302.39C140.66 300.64 140.62 298.57 140.71 296.66C140.82 294.42 140.89 292.18 140.93 289.95C141.01 284.89 140.88 279.83 140.56 274.78C140.38 271.9 135.88 271.88 136.06 274.78C136.37 279.75 136.5 284.72 136.43 289.7C136.4 292.02 136.32 294.34 136.21 296.66C136.16 297.68 136.23 298.83 135.96 299.83C135.79 300.44 135.84 300.57 135.25 300.62C133.69 300.75 131.74 298.91 130.62 298.06C129.15 296.94 127.76 295.71 126.44 294.41C123.55 291.57 121.1 288.37 119.07 284.87C117.61 282.37 113.72 284.63 115.18 287.14Z" style="fill: rgb(67, 71, 74);"/></g><g id="__id40_s1kav3sw1c"><path d="M367.63 118.16C373.25 112.62 378.88 107.08 384.5 101.53C385.45 100.59 386.6 99.67 387.04 98.36C388.06 95.29 385.58 92.7 382.6 92.64C378.6 92.55 374.59 92.58 370.59 92.55C366.64 92.52 362.7 92.49 358.75 92.46C355.85 92.44 355.85 96.94 358.75 96.96C366.18 97.02 373.61 97.07 381.05 97.13C381.55 97.13 382.11 97.21 382.61 97.14C382.77 97.12 383.1 97.19 382.78 97.05C382.65 96.99 382.93 96.85 382.54 97.15C382.12 97.48 381.76 97.92 381.38 98.29C378.24 101.39 375.1 104.48 371.96 107.58C369.46 110.04 366.96 112.5 364.47 114.97C362.38 117.02 365.56 120.2 367.63 118.16Z" style="fill: rgb(67, 71, 74);"/></g><g id="__id41_s1kav3sw1c"><path d="M359.54 91.6799C356.7 87.0199 353.87 82.3699 351.03 77.7099C349.99 75.9999 349 74.2499 347.9 72.5799C346.57 70.5499 344.16 69.5199 341.79 70.2999C338.7 71.3199 337.96 74.7899 337.01 77.5299C334.43 84.9599 332.83 92.6799 332.08 100.5C331.97 101.71 333.2 102.75 334.33 102.75C335.64 102.75 336.46 101.71 336.58 100.5C337.17 94.2499 338.42 88.0699 340.25 82.0599C340.68 80.6399 341.15 79.2299 341.65 77.8399C341.95 76.9899 342.37 75.0699 343.03 74.6399C343.3 74.4599 343.65 74.4899 343.79 74.6199C343.97 74.7799 344.02 74.8999 344.14 75.0799C345.34 76.8399 346.37 78.7399 347.48 80.5599C349.15 83.3099 350.83 86.0499 352.5 88.7999C353.54 90.5099 354.59 92.2299 355.63 93.9399C357.15 96.4199 361.05 94.1599 359.54 91.6799Z" style="fill: rgb(67, 71, 74);"/></g><g id="__id42_s1kav3sw1c"><path d="M331.9 95.1698C327.67 95.8998 323.45 96.6198 319.22 97.3498C315.94 97.9098 311.5 98.2198 310.45 102.09C309.32 106.28 313.42 109.03 316.18 111.29C319.43 113.95 322.68 116.6 325.94 119.26C325.75 118.53 325.55 117.8 325.36 117.07C323.98 121.21 322.92 125.45 321.66 129.63C320.56 133.28 318.34 138.18 322.36 140.92C326.1 143.47 331.08 140.72 334.78 139.42C339.29 137.83 343.8 136.24 348.31 134.66C351.02 133.7 349.86 129.36 347.11 130.32C343.22 131.69 339.33 133.06 335.44 134.43C333.57 135.09 331.71 135.74 329.84 136.4C328.54 136.86 326.54 137.93 325.13 137.34C323.91 136.83 324.65 135.03 324.94 134.13C325.47 132.45 326.01 130.79 326.5 129.1C327.55 125.49 328.5 121.84 329.69 118.27C329.92 117.58 329.69 116.55 329.11 116.08C326.36 113.83 323.61 111.59 320.86 109.34C319.55 108.27 318.24 107.21 316.94 106.14C316.32 105.63 314.33 104.25 314.8 103.18C315.1 102.5 316.52 102.38 317.14 102.26C318.87 101.93 320.62 101.66 322.36 101.36C325.94 100.75 329.51 100.13 333.09 99.5198C334.29 99.3098 334.96 97.8398 334.66 96.7498C334.32 95.4698 333.1 94.9598 331.9 95.1698Z" style="fill: rgb(67, 71, 74);"/></g><g id="__id43_s1kav3sw1c"><path d="M346.91 130.42C351.14 135.94 356.65 140.89 363.04 143.78C366.14 145.18 370.39 145.28 371.63 141.38C372.17 139.7 371.86 137.82 371.72 136.11C371.56 134.09 371.36 132.07 371.13 130.06C370.59 125.35 369.87 120.66 368.97 116C368.74 114.81 367.31 114.12 366.2 114.43C364.95 114.77 364.4 116 364.63 117.2C365.45 121.46 366.13 125.75 366.63 130.06C366.88 132.24 367.09 134.42 367.26 136.6C367.33 137.52 367.46 138.46 367.42 139.38C367.41 139.66 367.42 139.98 367.26 140.23C367.34 140.11 367.419 140.31 367.019 140.28C365.669 140.18 364.55 139.56 363.38 138.91C361.69 137.98 360.05 136.93 358.51 135.77C355.63 133.61 352.989 131.01 350.799 128.15C350.059 127.19 348.86 126.67 347.72 127.34C346.77 127.9 346.17 129.45 346.91 130.42Z" style="fill: rgb(67, 71, 74);"/></g><g id="__id44_s1kav3sw1c"><path d="M367.39 254.34C364.89 262.9 362.39 271.47 359.89 280.03C359.53 281.27 358.95 282.65 358.99 283.96C359.05 286.44 361.21 288.47 363.68 288.45C364.65 288.44 365.48 288.08 366.31 287.63C370.37 285.44 374.4 283.2 378.45 280.98C382.33 278.85 386.22 276.72 390.1 274.6C392.64 273.21 390.37 269.32 387.83 270.71C380.4 274.78 372.97 278.85 365.54 282.92C365.27 283.07 363.67 284.16 363.49 283.85C363.29 283.5 364.07 281.79 364.17 281.44C365.57 276.63 366.98 271.83 368.38 267.02C369.5 263.19 370.62 259.37 371.73 255.54C372.54 252.75 368.2 251.56 367.39 254.34Z" style="fill: rgb(67, 71, 74);"/></g><g id="__id45_s1kav3sw1c"><path d="M390.02 275.85C395.33 278.86 400.64 281.86 405.95 284.87C408.02 286.04 410.07 287.29 412.18 288.4C414.54 289.64 417.46 289.33 419.25 287.24C421.67 284.42 420.28 280.25 419.68 276.99C418.11 268.44 415.48 260.16 411.99 252.21C411.5 251.1 409.87 250.84 408.91 251.4C407.76 252.07 407.61 253.36 408.1 254.48C410.94 260.93 413.1 267.68 414.61 274.56C414.97 276.22 415.3 277.88 415.58 279.55C415.74 280.46 415.88 281.38 416.01 282.29C416.09 282.82 416.29 283.51 416.05 284.02C415.67 284.85 414.88 284.73 414.22 284.38C408.77 281.56 403.51 278.31 398.17 275.29C396.21 274.18 394.25 273.07 392.29 271.96C389.77 270.54 387.5 274.43 390.02 275.85Z" style="fill: rgb(67, 71, 74);"/></g><g id="__id46_s1kav3sw1c"><path d="M415.24 257.07C418.91 254.11 422.58 251.15 426.26 248.19C429.18 245.83 433.9 242.94 432.64 238.47C431.35 233.88 425.81 233.51 421.94 232.82C417.27 231.99 412.59 231.15 407.92 230.32C408.44 230.84 408.97 231.37 409.49 231.89C408.78 228.12 407.85 224.39 406.97 220.66C406.54 218.84 406.12 217.01 405.75 215.17C405.42 213.5 405.15 211.86 404.42 210.31C402.73 206.74 398.54 205.83 395.27 207.86C393.71 208.83 392.52 210.24 391.32 211.6C389.89 213.22 388.45 214.85 387.02 216.47C383.82 220.09 380.62 223.71 377.42 227.33C375.51 229.49 378.68 232.69 380.6 230.51C383.8 226.89 387 223.27 390.2 219.65C391.75 217.9 393.29 216.15 394.84 214.41C395.84 213.27 397.37 211.08 399.13 211.24C400.5 211.37 400.82 213.32 401.05 214.4C401.47 216.36 401.83 218.34 402.28 220.29C403.26 224.55 404.36 228.78 405.17 233.08C405.3 233.78 406.04 234.53 406.74 234.65C410.77 235.37 414.8 236.09 418.82 236.8C420.81 237.15 422.8 237.49 424.78 237.87C425.85 238.07 427.96 238.35 428.32 239.66C428.61 240.7 427.09 241.76 426.42 242.32C424.83 243.65 423.19 244.93 421.58 246.23C418.41 248.78 415.25 251.33 412.08 253.89C411.13 254.65 411.29 256.28 412.08 257.07C412.99 258.01 414.29 257.84 415.24 257.07Z" style="fill: rgb(67, 71, 74);"/></g><g id="__id47_s1kav3sw1c"><path d="M380.75 230.79C376.81 229.09 372.74 227.81 368.5 227.12C364.49 226.47 360.15 226.01 356.1 226.65C352.46 227.23 349.32 230.17 350.76 234.09C351.49 236.08 352.88 237.84 354.06 239.57C355.29 241.39 356.56 243.19 357.85 244.97C360.82 249.06 363.94 253.05 367.2 256.92C367.98 257.85 369.58 257.73 370.38 256.92C371.3 256 371.16 254.67 370.38 253.74C367.27 250.04 364.29 246.23 361.46 242.31C360.08 240.4 358.73 238.47 357.42 236.51C356.82 235.62 356.21 234.72 355.64 233.81C355.33 233.32 354.66 232.43 354.98 231.86C355.48 230.96 357.54 230.95 358.42 230.92C360.68 230.84 362.96 230.92 365.21 231.16C369.75 231.64 374.29 232.85 378.48 234.66C379.59 235.14 380.89 234.99 381.56 233.85C382.12 232.92 381.87 231.28 380.75 230.79Z" style="fill: rgb(67, 71, 74);"/></g><g id="__id48_s1kav3sw1c"><path d="M196.39 242.67C206.23 252.31 216.06 261.95 225.9 271.58C227.99 273.63 230.44 275.74 233.58 275.25C236.57 274.78 238.55 272.19 240.49 270.11C245.15 265.11 249.81 260.12 254.47 255.12C259.81 249.39 265.15 243.66 270.5 237.93C272.47 235.81 269.3 232.62 267.32 234.75C258.4 244.32 249.48 253.89 240.55 263.45C238.51 265.64 236.57 268.15 234.28 270.07C232.33 271.7 230.74 270.02 229.26 268.57C224.57 263.99 219.9 259.4 215.22 254.81C210.01 249.7 204.79 244.59 199.58 239.48C197.5 237.46 194.32 240.64 196.39 242.67Z" style="fill: rgb(67, 71, 74);"/></g><g id="__id49_s1kav3sw1c"><path d="M196.27 241.39C207.67 228.12 219.08 214.84 230.48 201.57C231.27 200.65 231.38 199.29 230.48 198.39C229.67 197.58 228.09 197.46 227.3 198.39C215.9 211.66 204.49 224.94 193.09 238.21C192.3 239.13 192.19 240.49 193.09 241.39C193.9 242.2 195.47 242.32 196.27 241.39Z" style="fill: rgb(67, 71, 74);"/></g><g id="__id50_s1kav3sw1c"><path d="M234.43 196.17C246.54 209.7 258.65 223.23 270.75 236.76C271.48 237.57 272.58 237.49 273.48 237.11C284.93 232.27 296.37 227.43 307.82 222.59C308.94 222.12 309.18 220.46 308.63 219.51C307.95 218.35 306.68 218.23 305.55 218.7C294.1 223.54 282.66 228.38 271.21 233.22C272.12 233.34 273.03 233.45 273.94 233.57C261.83 220.04 249.72 206.51 237.62 192.98C235.68 190.82 232.5 194.01 234.43 196.17Z" style="fill: rgb(67, 71, 74);"/></g><g id="__id51_s1kav3sw1c"><path d="M240.05 195.13C245.32 193.09 250.6 191.05 255.87 189.01C258.43 188.02 260.99 187.03 263.55 186.04C265.91 185.13 268.4 184.08 270.97 184.07C275.56 184.05 278.78 188.34 281.65 191.36C285.53 195.43 289.41 199.5 293.3 203.57C297.64 208.12 301.98 212.67 306.32 217.22C308.32 219.32 311.5 216.13 309.5 214.04C301.45 205.6 293.4 197.16 285.35 188.72C282.03 185.24 278.55 180.91 273.6 179.85C268.06 178.67 262.49 181.65 257.47 183.59C251.27 185.99 245.06 188.39 238.86 190.78C237.73 191.22 236.94 192.29 237.29 193.55C237.58 194.64 238.91 195.57 240.05 195.13Z" style="fill: rgb(67, 71, 74);"/></g><g id="__id52_s1kav3sw1c"><path d="M242.23 273.79C247.67 272.22 253.1 270.65 258.54 269.07C263.79 267.55 269.12 266.21 274.29 264.45C279.15 262.8 283.06 260.18 286.33 256.21C289.81 251.99 292.96 247.47 296.24 243.08C300.05 237.99 303.85 232.9 307.66 227.8C308.39 226.83 307.82 225.29 306.85 224.72C305.7 224.05 304.5 224.55 303.77 225.53C297.31 234.18 290.92 242.9 284.37 251.48C281.52 255.21 278.4 258.19 273.92 259.81C268.99 261.6 263.82 262.84 258.78 264.3C252.86 266.01 246.95 267.72 241.03 269.43C238.26 270.26 239.44 274.6 242.23 273.79Z" style="fill: rgb(67, 71, 74);"/></g><g id="__id53_s1kav3sw1c"><path d="M275.04 314.17C283.47 293.07 297.74 274.39 315.63 260.43C320.66 256.51 326.01 253 331.57 249.88C334.1 248.46 331.83 244.57 329.3 245.99C308.75 257.51 291.42 274.62 279.5 294.93C276.11 300.71 273.19 306.75 270.7 312.98C270.25 314.11 271.19 315.45 272.27 315.75C273.55 316.09 274.58 315.3 275.04 314.17Z" style="fill: rgb(67, 71, 74);"/></g><g id="__id54_s1kav3sw1c"><path d="M314.54 253.86C330.42 237.13 349.98 223.9 371.47 215.49C377.56 213.11 383.79 211.11 390.12 209.49C392.92 208.77 391.74 204.43 388.92 205.15C365.92 211.02 344.36 222.02 326 237.06C320.84 241.29 315.95 245.84 311.35 250.68C309.37 252.78 312.55 255.97 314.54 253.86Z" style="fill: rgb(67, 71, 74);"/></g><g id="__id55_s1kav3sw1c"><path d="M311.26 284.86C324.93 273.34 341.18 265.06 358.49 260.65C361.29 259.94 360.11 255.6 357.29 256.31C343.31 259.87 329.93 265.9 318.03 274.07C314.59 276.44 311.26 278.98 308.07 281.68C307.14 282.46 307.26 284.05 308.07 284.86C309 285.79 310.33 285.65 311.26 284.86Z" style="fill: rgb(67, 71, 74);"/></g><g id="__id56_s1kav3sw1c"><path d="M290.77 315.65C301.96 304.12 316.1 295.59 331.52 291.06C335.95 289.76 340.47 288.79 345.04 288.14C346.24 287.97 346.9 286.44 346.61 285.37C346.25 284.07 345.05 283.63 343.84 283.8C327.39 286.12 311.56 292.8 298.37 302.91C294.55 305.84 290.94 309.01 287.59 312.47C285.57 314.54 288.75 317.73 290.77 315.65Z" style="fill: rgb(67, 71, 74);"/></g><g id="__id57_s1kav3sw1c"><path d="M322.01 315.89C342.91 304.8 365.26 296.57 388.35 291.43C394.87 289.98 401.45 288.78 408.06 287.82C409.26 287.65 409.92 286.12 409.63 285.05C409.28 283.76 408.07 283.3 406.86 283.48C383.13 286.92 359.95 293.6 337.98 303.19C331.79 305.89 325.7 308.84 319.74 312.01C317.18 313.36 319.45 317.25 322.01 315.89Z" style="fill: rgb(67, 71, 74);"/></g><g id="__id58_s1kav3sw1c"><path d="M244.47 309.46C243.44 297.85 244.32 286.17 247.13 274.86C247.83 272.05 243.49 270.85 242.79 273.66C239.89 285.34 238.91 297.47 239.97 309.46C240.08 310.67 240.93 311.71 242.22 311.71C243.35 311.71 244.57 310.68 244.47 309.46Z" style="fill: rgb(67, 71, 74);"/></g><g id="__id59_s1kav3sw1c"><path d="M251.51 275.86C250.09 282.82 248.66 289.78 247.24 296.74C247 297.93 247.58 299.17 248.81 299.51C249.92 299.82 251.33 299.13 251.58 297.94C253 290.98 254.43 284.02 255.85 277.06C256.09 275.87 255.51 274.63 254.28 274.29C253.16 273.99 251.75 274.67 251.51 275.86Z" style="fill: rgb(67, 71, 74);"/></g><g id="__id60_s1kav3sw1c"><path d="M248.83 325.62C252.05 308.35 260 292.12 271.81 279.1C273.75 276.96 270.58 273.77 268.63 275.92C259.03 286.51 251.76 299.1 247.43 312.72C246.21 316.56 245.24 320.47 244.5 324.43C244.28 325.62 244.83 326.86 246.07 327.2C247.15 327.5 248.6 326.82 248.83 325.62Z" style="fill: rgb(67, 71, 74);"/></g><g id="__id61_s1kav3sw1c"><path d="M315.92 200.96C325.69 185.46 337.43 171.25 350.8 158.73C354.6 155.17 358.53 151.76 362.57 148.49C363.52 147.72 363.37 146.1 362.57 145.31C361.64 144.38 360.34 144.54 359.39 145.31C344.91 157.04 332 170.62 320.94 185.62C317.81 189.87 314.84 194.23 312.03 198.69C310.48 201.15 314.37 203.41 315.92 200.96Z" style="fill: rgb(67, 71, 74);"/></g><g id="__id62_s1kav3sw1c"><path d="M291.67 182.91C298.95 172.22 306.22 161.52 313.5 150.83C315.13 148.43 311.24 146.18 309.61 148.56C302.33 159.25 295.06 169.95 287.78 180.64C286.15 183.04 290.05 185.29 291.67 182.91Z" style="fill: rgb(67, 71, 74);"/></g><g id="__id63_s1kav3sw1c"><path d="M269.53 162.78C276.28 147.65 285.57 133.71 297.02 121.71C300.3 118.28 303.74 115.01 307.33 111.91C309.53 110.01 306.33 106.84 304.15 108.73C291.33 119.79 280.42 133.08 272.06 147.81C269.72 151.94 267.58 156.18 265.65 160.51C265.16 161.62 265.33 162.93 266.46 163.59C267.41 164.15 269.03 163.9 269.53 162.78Z" style="fill: rgb(67, 71, 74);"/></g><g id="__id64_s1kav3sw1c"><path d="M289.81 158.37C296.67 146.87 304.89 136.26 314.32 126.74C316.36 124.68 313.18 121.5 311.14 123.56C301.46 133.33 292.97 144.28 285.92 156.1C284.44 158.59 288.33 160.85 289.81 158.37Z" style="fill: rgb(67, 71, 74);"/></g><g id="__id65_s1kav3sw1c"><path d="M322.95 165.34C330.5 156.96 338.05 148.58 345.61 140.2C347.54 138.05 344.37 134.86 342.43 137.02C334.88 145.4 327.33 153.78 319.77 162.16C317.83 164.31 321 167.5 322.95 165.34Z" style="fill: rgb(67, 71, 74);"/></g><g id="__id66_s1kav3sw1c"><path d="M224.13 99.0101C232.6 119.38 236.77 141.42 236.28 163.47C236.14 169.62 235.66 175.76 234.8 181.85C234.63 183.05 235.09 184.27 236.37 184.62C237.42 184.91 238.97 184.26 239.14 183.05C242.33 160.61 240.87 137.63 234.72 115.8C233 109.69 230.9 103.68 228.47 97.8201C228 96.7001 226.98 95.9001 225.7 96.2501C224.64 96.5401 223.66 97.8801 224.13 99.0101Z" style="fill: rgb(67, 71, 74);"/></g><g id="__id67_s1kav3sw1c"><path d="M262.69 80.47C265.57 98.74 265.57 117.54 262.66 135.81C261.83 141.05 260.75 146.25 259.46 151.4C258.76 154.21 263.09 155.41 263.8 152.6C268.47 133.97 270.22 114.61 268.88 95.45C268.5 90.04 267.87 84.64 267.02 79.28C266.83 78.08 265.33 77.41 264.25 77.71C262.98 78.06 262.5 79.27 262.69 80.47Z" style="fill: rgb(67, 71, 74);"/></g><g id="__id68_s1kav3sw1c"><path d="M264.31 57.2699C268.77 71.0599 271.06 85.4299 271.08 99.9199C271.09 102.82 275.59 102.82 275.58 99.9199C275.55 85.0599 273.22 70.2199 268.65 56.0699C267.76 53.3299 263.41 54.4999 264.31 57.2699Z" style="fill: rgb(67, 71, 74);"/></g><g id="__id69_s1kav3sw1c"><path d="M240.58 87.9203C244.99 101.72 248.05 115.93 249.62 130.33C249.75 131.54 250.56 132.58 251.87 132.58C252.98 132.58 254.25 131.55 254.12 130.33C252.5 115.52 249.45 100.91 244.92 86.7203C244.04 83.9803 239.69 85.1503 240.58 87.9203Z" style="fill: rgb(67, 71, 74);"/></g><g id="__id70_s1kav3sw1c"><path d="M205.03 72.0397C211.57 83.4197 216.53 95.6097 219.81 108.32C220.53 111.12 224.88 109.93 224.15 107.12C220.78 94.0597 215.63 81.4597 208.91 69.7597C207.47 67.2597 203.58 69.5197 205.03 72.0397Z" style="fill: rgb(67, 71, 74);"/></g><g id="__id71_s1kav3sw1c"><path d="M189.44 127.2C197.32 138.52 203.66 150.86 208.18 163.89C209.12 166.61 213.47 165.44 212.52 162.69C207.87 149.3 201.42 136.56 193.32 124.92C192.63 123.92 191.35 123.46 190.24 124.11C189.26 124.7 188.74 126.2 189.44 127.2Z" style="fill: rgb(67, 71, 74);"/></g><g id="__id72_s1kav3sw1c"><path d="M199.08 166.21C205.23 183.22 207.36 201.44 205.32 219.4C205.18 220.61 206.45 221.65 207.57 221.65C208.9 221.65 209.68 220.61 209.82 219.4C211.9 201.09 209.68 182.34 203.42 165.01C203.01 163.87 201.89 163.1 200.65 163.44C199.55 163.75 198.66 165.06 199.08 166.21Z" style="fill: rgb(67, 71, 74);"/></g><g id="__id73_s1kav3sw1c"><path d="M184.32 177.97C192.1 192.23 196.04 208.38 195.75 224.62C195.7 227.52 200.2 227.52 200.25 224.62C200.55 207.6 196.36 190.64 188.2 175.7C186.81 173.16 182.93 175.42 184.32 177.97Z" style="fill: rgb(67, 71, 74);"/></g><g id="__id74_s1kav3sw1c"><path d="M172.08 204.51C183.42 225.42 192.07 247.72 197.81 270.8C199.42 277.28 200.79 283.81 201.94 290.38C202.15 291.58 203.62 292.25 204.71 291.95C205.97 291.6 206.49 290.38 206.28 289.18C202.14 265.52 194.98 242.44 185.07 220.56C182.26 214.34 179.21 208.23 175.96 202.23C174.59 199.69 170.7 201.96 172.08 204.51Z" style="fill: rgb(67, 71, 74);"/></g><g id="__id75_s1kav3sw1c"><path d="M125.97 183.67C137.77 195.94 148.59 209.13 158.29 223.13C167.97 237.1 176.54 251.84 183.91 267.16C188.06 275.81 191.82 284.64 195.17 293.63C195.59 294.77 196.69 295.54 197.94 295.2C199.03 294.9 199.94 293.58 199.51 292.43C193.46 276.18 186.13 260.42 177.57 245.34C169.01 230.26 159.23 215.9 148.39 202.37C142.32 194.79 135.9 187.49 129.16 180.49C127.14 178.4 123.96 181.58 125.97 183.67Z" style="fill: rgb(67, 71, 74);"/></g><g id="__id76_s1kav3sw1c"><path d="M161.2 261.42C172.03 273.31 180.64 287.27 186.34 302.32C187.99 306.67 189.39 311.1 190.57 315.6C191.3 318.4 195.64 317.21 194.91 314.4C190.67 298.2 183.36 282.79 173.44 269.3C170.61 265.46 167.59 261.76 164.38 258.23C162.43 256.1 159.25 259.28 161.2 261.42Z" style="fill: rgb(67, 71, 74);"/></g><g id="__id77_s1kav3sw1c"><path d="M143.41 280.47C151.85 285.77 159.04 292.92 164.38 301.34C165.93 303.78 169.82 301.52 168.27 299.07C162.51 290 154.79 282.3 145.69 276.59C143.22 275.04 140.96 278.93 143.41 280.47Z" style="fill: rgb(67, 71, 74);"/></g><g id="__id78_s1kav3sw1c"><path d="M143.64 304.65C158.34 309.42 172.13 316.97 184.05 326.82C184.99 327.59 186.32 327.74 187.23 326.82C188.03 326.02 188.17 324.42 187.23 323.64C174.69 313.27 160.32 305.34 144.84 300.31C142.08 299.41 140.9 303.75 143.64 304.65Z" style="fill: rgb(67, 71, 74);"/></g><g id="__id79_s1kav3sw1c"><path d="M92.7504 299.46C100.71 300.79 108.67 302.11 116.64 303.44C117.84 303.64 119.06 303.13 119.41 301.87C119.71 300.79 119.04 299.3 117.84 299.1C109.88 297.77 101.92 296.45 93.9504 295.12C92.7504 294.92 91.5304 295.43 91.1804 296.69C90.8804 297.77 91.5404 299.26 92.7504 299.46Z" style="fill: rgb(67, 71, 74);"/></g><g id="__id80_s1kav3sw1c"><path d="M125.27 231.17C133.22 235.53 140.08 241.74 145.13 249.28C145.81 250.29 147.11 250.73 148.21 250.09C149.21 249.5 149.7 248.03 149.02 247.01C143.54 238.84 136.18 232.03 127.54 227.29C125 225.89 122.73 229.78 125.27 231.17Z" style="fill: rgb(67, 71, 74);"/></g></svg>