<?xml version="1.0" encoding="UTF-8"?><svg xmlns="http://www.w3.org/2000/svg" xmlns:xlink="http://www.w3.org/1999/xlink" height="501.4" preserveAspectRatio="xMidYMid meet" version="1.0" viewBox="-3.1 -2.3 147.4 501.4" width="147.4" zoomAndPan="magnify"><g id="change1_1"><path d="M301.59,97.35q-.27,14.67-.25,29.32c-.18,56.76,1.62,113.58,1,170.37-.45,44.8-.45,68.64-1.92,104.29-.18.53-.36,1.08-.56,1.6-10.13,30.5-24.31,55.72-36.57,77.28-1.75,3.11-3.48,6.11-5.13,9.06-1.88,3.33-4.15,6.85-7.75,8.18-7.18,2.65-13.84-4.8-17.77-11.41-1-1.67-2-3.42-3-5.2-15.54-27-33.38-64.65-34.58-70.3-.37-1.8-.67-3.6-.87-5.43-.53-4.3-.7-8.63-.88-13-.6-15.26.3-84.26-.57-115.73q-2.12-74.74-.83-149.53c.12-9.3.32-18.64.55-27.94q.79-33.78,2.33-67.52c.47-10.49,11.2-20.69,27.09-25.7,19.54-6.15,43.21-7,61.74,1.73,8,3.8,15.94,9.33,18.84,17.69,1.78,5.07,1.48,10.6,1.15,16C302.54,59.87,301.91,78.61,301.59,97.35Z" fill="#ffbd59" transform="translate(-176.82 -1)"/></g><g id="change2_1"><path d="M315.34,155.51a33.21,33.21,0,0,1-13.8,16.92C302,214,302.8,255.5,302.36,297c-.45,44.8-.45,68.64-1.92,104.29-.18.53-.36,1.08-.56,1.6a28.32,28.32,0,0,1-9.6,4.36c-8.31,2-17.51.07-23.82-5.08v0c-.12-28.5.38-57,.55-85.46q-.11-70.71,2.08-141.41c-.85-.4-1.68-.85-2.5-1.33-2.17,75.77-2.26,151.59-2.68,227.4a25,25,0,0,1-17.14,6.75A24.15,24.15,0,0,1,229.89,401c-.26-74.69-.18-149.41-2.07-224.08-.81.47-1.64.92-2.48,1.34q1.88,68.59,1.64,137.23c.1,28.47.53,56.94.33,85.44,0,.35,0,.72,0,1.1a23.92,23.92,0,0,1-33.14,3.1c-.53-4.3-.7-8.63-.88-13-.51-12.57-1.86-134.49-1.75-216.07-11.71-8.49-17.81-24.8-13.19-38.69,5.59-16.83,25.93-27.1,42.8-21.62a31.55,31.55,0,0,1,8.41,4.26,201.63,201.63,0,0,1,30.79-.35c8.95-7.86,21.94-11.37,33.35-7.66C311.42,117.78,321.15,138.76,315.34,155.51Z" fill="#eb620e" transform="translate(-176.82 -1)"/></g><g id="change3_1"><path d="M303.61,41.13c-.37,10.57-.92,38.23-2,56.22A191.33,191.33,0,0,0,192.46,99q.79-33.78,2.33-67.52c.47-10.49,11.2-20.69,27.09-25.7,19.54-6.15,43.21-7,61.74,1.73,8,3.8,15.94,9.33,18.84,17.69C304.24,30.22,303.87,33.94,303.61,41.13Z" fill="#e02f50" transform="translate(-176.82 -1)"/></g><g id="change4_1"><path d="M240,158.29c-5.3,15.28-24,24.41-39.29,19.21s-24.57-23.81-19.47-39.16,23.66-24.73,39-19.72C236.39,123.87,245.26,143,240,158.29Zm52.83-43.43c-15.38-5-33.93,4.37-39,19.72s4.15,34,19.47,39.17,34-3.93,39.29-19.22S308.94,120.12,292.79,114.86ZM198.63,396.14a5.43,5.43,0,0,0-.74,3.85,2.94,2.94,0,0,0,2.85,2.33,3.21,3.21,0,0,0,2.54-2.17,4.18,4.18,0,0,0-.81-4.45A2.38,2.38,0,0,0,198.63,396.14Zm-.08-5.89a3.09,3.09,0,0,0,1.51,1.31,2.41,2.41,0,0,0,2.42-1.21c1.12-1.63,1.16-3.74,1.1-5.72a24.52,24.52,0,0,0-1.94-10c-.39-.81-1.11-1.7-2-1.5a1.71,1.71,0,0,0-.89.61c-1.22,1.4-1.44,3.39-1.52,5.24a66.67,66.67,0,0,0,0,6.78A7.9,7.9,0,0,0,198.55,390.25ZM289.84,22.12a8.28,8.28,0,0,0-1.08,3.31,2.86,2.86,0,0,0,1.64,2.84,3,3,0,0,0,1.81,0,4.79,4.79,0,0,0,3.36-3.43,4,4,0,0,0-1.88-4.29C292.2,19.73,290.68,20.41,289.84,22.12Zm-3.42-5.75a25.79,25.79,0,0,0-15.16-6.5,7.51,7.51,0,0,0-3.59.4,3.13,3.13,0,0,0-2,2.82,3.51,3.51,0,0,0,2.52,2.81,39.08,39.08,0,0,0,3.9.81c3.24.81,5.81,3.27,8.93,4.43a5.37,5.37,0,0,0,4.18.1C286.52,20.62,288.4,18.15,286.42,16.37Z" fill="#fff" transform="translate(-176.82 -1)"/></g><g id="change5_1"><path d="M291.31,152.87c-3.07,10.07-13.85,16.08-22.7,12.66s-14.2-15.69-11.25-25.81,13.66-16.28,22.55-13C289.24,130.19,294.37,142.8,291.31,152.87ZM225.5,128.61c-8.89-3.3-19.61,2.88-22.55,13s2.39,22.38,11.24,25.8,19.64-2.58,22.7-12.66S234.83,132.07,225.5,128.61Zm23,347a32.81,32.81,0,0,0-18.86,5.25c1,1.78,2,3.53,3,5.2,3.93,6.61,10.59,14.06,17.77,11.41,3.6-1.33,5.87-4.85,7.75-8.18,1.65-2.95,3.38-5.95,5.13-9.06A31.56,31.56,0,0,0,248.5,475.59Zm-25.64-373c-.47-1.07-1.82-1.43-2.75-2a9.52,9.52,0,0,0-3.73-1.21,12.56,12.56,0,0,0-7.48,2.18c-1.43,1.13-3.05,2.43-3.71,4.16a1.24,1.24,0,0,0,2.3.79,10.42,10.42,0,0,1,8.44-4.66,6.51,6.51,0,0,1,2.58.72c1.05.42,1.91,1.31,3,1.63A1.25,1.25,0,0,0,222.86,102.56Zm64.09-1a12.73,12.73,0,0,0-5.05-2.81,11.4,11.4,0,0,0-6.86.36c-1.72.79-4,1.68-5,3.31a1.26,1.26,0,0,0,1.84,1.41c3.41-2.63,6.14-3.44,9.3-2.68a10.09,10.09,0,0,1,3.95,2.11c1,.78,2.34,3.16,3.63,1.41C289.42,103.38,287.73,102.42,287,101.59Zm-25.83,78.89c-1.13,1.22-1.18,2.77-2.62,4.54a12.2,12.2,0,0,1-15.12,4.45c-.78-.17-1.33-.8-2.57-1.74a1.25,1.25,0,0,0-1.37,2c3.91,3.82,10.47,4.09,15.25,1.83A16.39,16.39,0,0,0,263,181.4,1.26,1.26,0,0,0,261.12,180.48Z" transform="translate(-176.82 -1)"/></g></svg>