
<svg xmlns="http://www.w3.org/2000/svg" xmlns:xlink="http://www.w3.org/1999/xlink" preserveAspectRatio="xMidYMid meet" version="1.0" viewBox="0.0 0.0 126.0 118.0" zoomAndPan="magnify" style="fill: rgb(67, 71, 74);" original_string_length="4794"><g id="__id9_srt576utx"><path d="M17.052,63.132c5.846,5.853,13.898,9.477,22.776,9.477c8.877,0,16.929-3.623,22.775-9.475 c0.023-0.019,0.051-0.026,0.072-0.047c0.023-0.022,0.031-0.052,0.051-0.076c5.816-5.884,9.416-13.988,9.416-22.923 s-3.6-17.039-9.416-22.923c-0.02-0.024-0.028-0.054-0.051-0.076c-0.021-0.021-0.049-0.028-0.072-0.047 c-5.846-5.852-13.898-9.475-22.775-9.475c-8.878,0-16.93,3.624-22.776,9.477c-0.022,0.019-0.05,0.026-0.071,0.047 c-0.022,0.022-0.03,0.051-0.05,0.075c-5.815,5.884-9.416,13.988-9.416,22.923s3.6,17.039,9.416,22.923 c0.02,0.023,0.028,0.053,0.05,0.075C17.002,63.106,17.03,63.113,17.052,63.132z M9.541,41.087h5.237c0.553,0,1-0.447,1-1 s-0.447-1-1-1H9.541c0.247-7.659,3.305-14.611,8.173-19.843l3.693,3.717c0.195,0.196,0.452,0.295,0.709,0.295 c0.255,0,0.51-0.097,0.705-0.291c0.392-0.389,0.394-1.021,0.004-1.414l-3.702-3.726c5.196-4.902,12.099-7.984,19.706-8.234v5.278 c0,0.553,0.447,1,1,1s1-0.447,1-1V9.591c7.606,0.25,14.509,3.331,19.705,8.233l-3.701,3.727c-0.389,0.393-0.387,1.025,0.005,1.415 c0.195,0.193,0.45,0.29,0.705,0.29c0.257,0,0.514-0.099,0.71-0.295l3.692-3.717c4.867,5.232,7.926,12.184,8.173,19.843h-5.237 c-0.553,0-1,0.447-1,1s0.447,1,1,1h5.237c-0.247,7.659-3.305,14.61-8.173,19.843l-3.692-3.717 c-0.392-0.392-1.023-0.394-1.415-0.005c-0.392,0.39-0.394,1.022-0.005,1.415l3.701,3.727c-5.196,4.902-12.099,7.983-19.705,8.233 v-5.278c0-0.553-0.447-1-1-1s-1,0.447-1,1v5.278c-7.606-0.25-14.51-3.331-19.706-8.234l3.702-3.726 c0.39-0.393,0.388-1.025-0.004-1.414c-0.392-0.39-1.024-0.387-1.414,0.004l-3.693,3.717C12.846,55.698,9.787,48.746,9.541,41.087z" style="fill: inherit;"/><path d="M37.455,37.512c-0.691,0.644-1.132,1.556-1.132,2.575c0,1.941,1.572,3.521,3.505,3.521c1.022,0,1.935-0.45,2.576-1.154 l18.344,7.386c0.122,0.049,0.248,0.072,0.373,0.072c0.396,0,0.771-0.236,0.928-0.627c0.206-0.512-0.042-1.095-0.555-1.301 L43.276,40.65c0.03-0.185,0.057-0.37,0.057-0.563c0-1.941-1.572-3.521-3.505-3.521c-0.199,0-0.391,0.027-0.581,0.059l-6.023-13.34 c-0.227-0.503-0.819-0.731-1.322-0.5c-0.504,0.227-0.728,0.819-0.5,1.322L37.455,37.512z M41.333,40.087 c0,0.839-0.675,1.521-1.505,1.521s-1.505-0.683-1.505-1.521s0.675-1.521,1.505-1.521S41.333,39.248,41.333,40.087z" style="fill: inherit;"/><path d="M117.219,34.044h-10.007v-4.826c0-2.206-1.794-4-4-4h-1.515c-2.206,0-4,1.794-4,4v4.826H79.203 C76.299,14.797,59.749,0,39.828,0C17.867,0,0,17.983,0,40.087C0,53.33,6.418,65.089,16.283,72.393v36.774 c0,4.87,3.939,8.833,8.781,8.833h92.154c4.842,0,8.781-3.963,8.781-8.833v-66.29C126,38.007,122.061,34.044,117.219,34.044z M99.697,29.218c0-1.103,0.897-2,2-2h1.515c1.103,0,2,0.897,2,2v11.651c0,1.103-0.897,2-2,2h-1.515c-1.103,0-2-0.897-2-2V29.218z M97.697,36.044v4.825c0,2.206,1.794,4,4,4h1.515c2.206,0,4-1.794,4-4v-4.825h10.007c3.739,0,6.781,3.065,6.781,6.833v7.558H78.304 c0.878-3.303,1.353-6.77,1.353-10.348c0-1.365-0.069-2.713-0.202-4.043H97.697z M2,40.087C2,19.086,18.97,2,39.828,2 s37.828,17.086,37.828,38.087s-16.97,38.087-37.828,38.087S2,61.088,2,40.087z M88.93,60v10.608h-7.769h-2.757V60H88.93z M101.454,60v10.608H90.93V60H101.454z M113.979,60v10.608h-10.525V60H113.979z M90.93,108.435V97.826h10.524v10.608H90.93z M78.404,108.435V97.826h2.757h7.769v10.608H78.404z M76.151,108.435H65.879V97.826h10.525v10.608H76.151z M53.354,108.435V97.826 h7.768h2.758v10.608H53.354z M40.828,108.435V97.826h10.525v10.608H40.828z M28.303,108.435V97.826h10.525v10.608H28.303z M38.828,80.148v3.069H28.303v-4.762C31.648,79.476,35.178,80.057,38.828,80.148z M51.354,78.456v4.762H40.828v-3.069 C44.478,80.057,48.008,79.476,51.354,78.456z M63.072,72.608h0.807v10.609h-2.758h-7.768V77.79 C56.846,76.517,60.109,74.76,63.072,72.608z M88.93,72.608v10.609h-7.769h-2.757V72.608h2.757H88.93z M81.161,95.826h-2.757V85.218 h2.757h7.769v10.608H81.161z M53.354,95.826V85.218h7.768h2.758v10.608h-2.758H53.354z M28.303,85.218h10.525v10.608H28.303V85.218 z M40.828,85.218h10.525v10.608H40.828V85.218z M65.879,85.218h10.525v10.608H65.879V85.218z M90.93,85.218h10.524v10.608H90.93 V85.218z M103.454,85.218h10.525v10.608h-10.525V85.218z M113.979,83.218h-10.525V72.608h10.525V83.218z M101.454,83.218H90.93 V72.608h10.524V83.218z M76.404,83.218H65.879V72.608h10.525V83.218z M103.454,97.826h10.525v10.608h-10.525V97.826z M76.404,70.608H65.879v-0.238c3.375-2.945,6.253-6.449,8.493-10.371h2.032V70.608z M117.219,116H25.064 c-3.739,0-6.781-3.065-6.781-6.833V73.775c2.498,1.624,5.182,2.98,8.02,4.015v31.644c0,0.553,0.447,1,1,1h48.849h38.828 c0.553,0,1-0.447,1-1V59c0-0.553-0.447-1-1-1H75.443c0.89-1.784,1.651-3.642,2.272-5.565H124v56.732 C124,112.935,120.958,116,117.219,116z" style="fill: inherit;"/></g></svg>